<?xml version="1.0" encoding="utf-8" ?>
<svg xmlns="http://www.w3.org/2000/svg" xmlns:xlink="http://www.w3.org/1999/xlink" width="1546" height="773">
	<path fill="#02B5B6" transform="matrix(0.754883 0 0 0.754883 0 0.00012207)" d="M1273 509.921C1273.76 507.322 1274.38 504.771 1274.88 502.107C1289.5 498.618 1305.71 498.444 1319.73 493C1323.64 498.764 1322.84 520.778 1321.79 527.975C1321.53 529.746 1320.64 530.872 1319.33 532C1313.21 530.807 1306.7 530.052 1300.76 528.192C1291.95 525.432 1277.34 518.244 1273 509.921Z"/>
	<path fill="#092042" transform="matrix(0.754883 0 0 0.754883 0 0.00012207)" d="M446.924 449.401L449.197 449.641C450.876 454.034 450.257 459.947 450.306 464.628C445.213 465.693 439.992 466.408 434.856 467.269L434.366 565.292L414.527 569.785L414.588 552.968L415.143 470.151C408.9 471.112 402.675 472.476 396.471 473.674C396.407 468.313 395.931 463.165 395.264 457.855C412.461 454.898 429.647 451.862 446.924 449.401Z"/>
	<path fill="#092042" transform="matrix(0.754883 0 0 0.754883 0 0.00012207)" d="M561.248 429.381C563.457 432.389 562.373 441.46 562.349 445.497C554.198 446.499 546.104 447.801 537.998 449.107C538.162 460.009 537.939 470.937 537.871 481.841L557.783 478.422L557.729 494.849C551.228 495.916 544.541 496.415 537.988 497.144L538.14 531.417C546.95 529.824 555.768 528.575 564.641 527.405L564.755 543.02C550.791 547.928 533.368 549.099 518.64 551.431C517.755 513.21 518.425 474.793 518.393 436.556C532.647 433.956 546.938 431.648 561.248 429.381Z"/>
	<path fill="#092042" transform="matrix(0.754883 0 0 0.754883 0 0.00012207)" d="M508.53 438.401C509.411 438.366 509.641 438.877 510.285 439.435C509.86 477.085 510.387 514.755 510.312 552.409C503.74 553.816 497.045 554.813 490.419 555.948L490.307 507.905L474.135 510.792C474.123 526.716 473.125 543.341 474.606 559.171L455.088 562.344C454.731 524.131 455.652 485.937 455.363 447.737C461.695 446.33 468.141 445.297 474.524 444.138C474.19 461.096 474.297 478.047 474.4 495.007L490.132 492.378L490.055 441.636C496.106 440.188 502.386 439.395 508.53 438.401Z"/>
	<path fill="#EF5817" transform="matrix(0.754883 0 0 0.754883 0 0.00012207)" d="M1024 765.003C1026.3 765.08 1027.95 764.757 1029.85 766.178C1032.6 777.181 1032.95 788.889 1034.38 800.133C1036.83 819.448 1040.55 837.998 1046.3 856.617C1050.28 869.521 1069.16 915.196 1068.98 924.462C1068.76 925.255 1068.5 926.077 1068.07 926.786C1064.7 932.441 1027.85 969.808 1023.22 971.102C1007.65 954.925 991.199 939.769 975.451 923.816C993.857 896.118 1008.13 836.695 1013.65 802.755C1015.54 791.09 1016.06 779.28 1018.13 767.637C1020 766.331 1021.87 765.722 1024 765.003Z"/>
	<path fill="#092042" transform="matrix(0.754883 0 0 0.754883 0 0.00012207)" d="M865.886 706.663L867.133 705.488C872.882 710.69 876.666 720.845 880.217 727.763C885.804 738.646 905.766 777.975 912.673 784.688C919.182 783.662 925.767 782.39 932.326 781.799C926.383 818.071 910.486 849.739 880.234 871.513C877.897 873.195 875.551 874.876 873.12 876.42C873.652 865.993 873.819 856.572 871.564 846.345C856.745 867.829 846.384 887.629 820.954 898.283C805.102 865.602 801.566 829.779 795.434 794.539C803.008 793.055 810.599 791.364 818.214 790.121L865.706 782.545C865.856 757.254 866.175 731.954 865.886 706.663Z"/>
	<path fill="#02B5B6" transform="matrix(0.754883 0 0 0.754883 0 0.00012207)" d="M865.886 706.663L867.133 705.488C872.882 710.69 876.666 720.845 880.217 727.763C885.804 738.646 905.766 777.975 912.673 784.688C907.904 803.264 901.257 819.115 891.975 835.808C882.489 792.98 878.669 748.691 865.886 706.663Z"/>
	<path fill="#02B5B6" transform="matrix(0.754883 0 0 0.754883 0 0.00012207)" d="M818.214 790.121L865.706 782.545C855.911 817.868 857.997 841.328 830.792 870.108C826.333 853.48 823.783 836.505 821.86 819.417C820.772 809.739 820.353 799.622 818.214 790.121Z"/>
	<path fill="#092042" transform="matrix(0.754883 0 0 0.754883 0 0.00012207)" d="M1313.54 425.499L1315.85 425.949C1316.23 426.467 1316.58 426.9 1316.69 427.55C1318.19 436.142 1319.08 477.531 1315.33 483.665C1308.3 488.445 1273.18 492.615 1262.91 494.366C1263 494.687 1263.1 495.007 1263.18 495.33C1265.97 506.386 1264.27 565.875 1264.23 581.508C1264.14 621.321 1265.65 661.574 1264.13 701.329C1264.04 703.674 1263.79 705.391 1262.59 707.469C1253.66 711.499 1208.13 717.842 1195.46 720.243C1196.59 718.547 1197.22 716.8 1197.5 714.775C1198.67 706.419 1200.28 689.49 1195.03 682.516C1195.93 681.702 1196.89 680.771 1197.19 679.561C1199.35 670.938 1197.88 641.949 1197.93 631.632C1198.09 594.221 1200.08 550.276 1197.58 513.549C1197.4 510.823 1197.09 508.743 1195.52 506.45C1185.92 509.239 1173.74 511.371 1163.75 511.587C1163.28 511.313 1162.64 511.211 1162.32 510.763C1162.1 510.451 1163.36 501.376 1163.42 500.046C1164 488.344 1165.31 465.392 1160.75 455.312C1160.65 455.081 1160.54 454.853 1160.43 454.623C1182.34 452.255 1204.83 446.996 1226.54 443.057C1255.08 437.88 1285.75 433.565 1313.54 425.499Z"/>
	<path fill="#092042" transform="matrix(0.754883 0 0 0.754883 0 0.00012207)" d="M1910.69 311.499C1912.54 311.236 1914.34 311.348 1916.2 311.421L1916.36 312.393C1908.62 335.247 1897.7 357.82 1887.96 379.926C1877.95 402.653 1868.56 425.635 1858.38 448.311C1850.39 466.095 1840.24 484.248 1834.79 502.929C1832.5 510.789 1832.1 518.716 1832.06 526.862C1831.98 540.21 1836.96 589.299 1830.5 597.968C1815.97 604.296 1786.13 607.034 1769.71 609.082C1773.65 602.094 1773.24 529.724 1771.91 520.083C1770.82 512.205 1749.13 468.539 1743.4 464.175C1741.18 452.513 1693.28 362.093 1684.73 355.99C1708.01 353.551 1732.25 348.548 1754.95 342.825C1755.31 343.136 1755.87 343.592 1756.2 343.977C1762.89 351.784 1799.26 431.606 1798.54 440.79C1799.85 439.847 1801.22 438.804 1802.17 437.477C1809.5 427.268 1846.44 332.155 1845.02 324.546C1866.55 322.081 1889.85 317.481 1910.69 311.499Z"/>
	<path fill="#02B5B6" transform="matrix(0.754883 0 0 0.754883 0 0.00012207)" d="M1237.76 308.107C1298.09 302.424 1357.92 288.622 1416.22 272.36C1433.39 267.57 1451.79 263.161 1468.21 256.154C1468.63 256.839 1468.97 257.412 1469.19 258.191C1472.69 270.512 1459.76 311.286 1453.49 323.452C1444.72 340.477 1428.25 357.719 1409.62 363.614C1414.27 364.617 1419.03 365.816 1422.8 368.872C1425.53 371.08 1427.18 374.158 1427.55 377.638C1427.86 382.411 1424.56 388.554 1421.53 392.119C1413.36 401.753 1396.73 404.035 1384.81 405.071C1379.13 407.719 1370.64 408.251 1364.39 409.383C1363.8 415.762 1337.18 444.572 1331.16 449.462C1329.99 450.415 1328.76 451.099 1327.36 451.653C1330.19 446.559 1330.97 421.665 1329.19 415.359C1328.89 414.31 1328.49 413.431 1327.99 412.466C1312.52 418.645 1289.37 421.258 1272.72 424.56C1251.18 428.832 1226.65 435.487 1204.86 436.984C1199.32 440.151 1180.03 442.168 1172.76 443.181C1183.3 438.701 1192.52 425.358 1198.92 416.248C1215.03 393.342 1242.7 336.378 1237.76 308.107Z"/>
	<path fill="#092042" transform="matrix(0.754883 0 0 0.754883 0 0.00012207)" d="M1237.76 308.107C1298.09 302.424 1357.92 288.622 1416.22 272.36C1433.39 267.57 1451.79 263.161 1468.21 256.154C1468.63 256.839 1468.97 257.412 1469.19 258.191C1472.69 270.512 1459.76 311.286 1453.49 323.452C1444.72 340.477 1428.25 357.719 1409.62 363.614C1414.27 364.617 1419.03 365.816 1422.8 368.872C1425.53 371.08 1427.18 374.158 1427.55 377.638C1427.86 382.411 1424.56 388.554 1421.53 392.119C1413.36 401.753 1396.73 404.035 1384.81 405.071C1389.61 400.828 1402.93 390.472 1403.6 383.849C1403.65 383.376 1403.63 383.222 1403.61 382.788C1373.89 388.471 1326.36 381.448 1295.35 379.085C1336.46 374.656 1405.62 355.523 1432.06 322.472C1439.36 313.347 1447.9 297.23 1446.15 285.199C1446.02 284.301 1445.78 283.704 1445.42 282.88C1442.48 282.875 1395.63 296.481 1387.81 298.447C1347.78 308.507 1294.94 320.895 1254.47 324.354C1259.68 341.498 1235.26 391.033 1226.15 408.088C1221.06 417.615 1214.34 431.199 1204.86 436.984C1199.32 440.151 1180.03 442.168 1172.76 443.181C1183.3 438.701 1192.52 425.358 1198.92 416.248C1215.03 393.342 1242.7 336.378 1237.76 308.107Z"/>
	<path fill="#092042" transform="matrix(0.754883 0 0 0.754883 0 0.00012207)" d="M1273 509.921C1277.34 518.244 1291.95 525.432 1300.76 528.192C1306.7 530.052 1313.21 530.807 1319.33 532C1322.28 536.352 1321.69 547.425 1320.6 552.471C1320.37 553.53 1319.9 554.504 1319.34 555.422C1312.65 551.309 1301.94 548.173 1294.14 546.607C1295.53 549.587 1295.73 552.302 1295.84 555.535C1297.28 598.061 1295.74 640.839 1295.91 683.402C1296 706.481 1298.25 729.547 1297.75 752.6C1297.54 762.242 1297.75 773.563 1294.41 782.75C1293.63 784.914 1292.43 786.714 1290.86 788.391C1288.49 783.566 1253.72 756.882 1247.48 753.893C1256.57 768.826 1247.63 828.297 1243.55 845.058C1240.81 856.346 1232.16 891.366 1224.17 897.539L1223.54 897.075C1213.08 889.413 1201.58 884.447 1193.11 874.222C1186.3 865.988 1183.22 852.628 1175.26 846.025C1174.99 845.808 1174.75 845.57 1174.49 845.348C1174.34 845.214 1174.18 845.087 1174.02 844.956C1177.36 852.55 1176.16 864.533 1173.11 872.102C1172.55 873.515 1171.68 874.81 1170.79 876.037C1169.21 870.375 1154.4 860.465 1149.82 855.996C1139.88 846.293 1130.56 830.112 1124.69 817.462C1120.63 808.706 1117.94 798.801 1115.59 789.469C1113.56 781.409 1110.33 753.208 1105.25 748.42C1111.17 747.422 1117.38 746.732 1123.2 745.307C1132.32 744.285 1153.25 741.809 1160.61 737.192C1163.25 723.333 1161.2 696.769 1161.12 681.633L1160.86 562.805C1160.88 551.224 1158.99 533.248 1161.98 522.657L1165.7 521.204L1186.33 517.591C1188.08 520.237 1188.24 522.828 1188.39 525.932C1190.42 566.073 1188.31 607.009 1188.37 647.238L1188.61 697.623C1188.65 706.783 1189.69 718.063 1187.8 727.004C1187.57 728.092 1187.19 729.097 1186.66 730.071C1194.9 733.044 1216.61 726.771 1225.66 724.956C1232.58 723.33 1239.73 722.3 1246.73 721.032C1254.02 719.724 1267.83 719.086 1273.75 715.092C1276.37 708.057 1275.41 534.887 1274.35 515.155C1274.25 513.293 1273.72 511.623 1273 509.921Z"/>
	<path fill="#02B5B6" transform="matrix(0.754883 0 0 0.754883 0 0.00012207)" d="M1273.75 715.092C1278.98 721.567 1277.79 739.799 1277.02 747.939C1276.82 750.011 1276.16 751.709 1275.41 753.611C1275.3 753.891 1275.21 754.178 1275.11 754.462C1274.27 748.105 1254.03 726.601 1248.66 722.414C1248.03 721.927 1247.39 721.469 1246.73 721.032C1254.02 719.724 1267.83 719.086 1273.75 715.092Z"/>
	<path fill="#02B5B6" transform="matrix(0.754883 0 0 0.754883 0 0.00012207)" d="M1160.61 737.192C1163.25 723.333 1161.2 696.769 1161.12 681.633L1160.86 562.805C1160.88 551.224 1158.99 533.248 1161.98 522.657L1165.7 521.204C1167.1 523.965 1167.55 526.324 1167.65 529.412C1168.04 540.842 1167.16 552.457 1167.09 563.916L1167 642.758L1167.09 716.949C1167.12 731.788 1167.65 746.764 1166.82 761.58C1165.67 782.012 1163.59 805.534 1157.24 824.972C1156.12 828.405 1154.92 831.247 1152.35 833.849C1153.48 827.647 1146.11 816.335 1143.3 810.691C1139.55 803.17 1135.33 795.101 1133.16 786.964C1130.56 777.203 1130.95 753.94 1125.72 747.07C1125.03 746.168 1124.23 745.713 1123.2 745.307C1132.32 744.285 1153.25 741.809 1160.61 737.192Z"/>
	<path fill="#02B5B6" transform="matrix(0.754883 0 0 0.754883 0 0.00012207)" d="M1186.66 730.071C1194.9 733.044 1216.61 726.771 1225.66 724.956C1234.84 749.521 1228.95 841.939 1217.76 864.928C1217.13 866.214 1216.31 867.277 1215.38 868.354C1215.24 868.516 1215.11 868.682 1214.97 868.845C1214.71 869.152 1214.42 869.443 1214.14 869.731C1213.83 866.281 1203.33 851.116 1201.05 846.468C1197.19 838.592 1193.7 829.752 1191.96 821.14C1188.52 804.16 1186.94 786.307 1187.06 769.001C1187.15 756.366 1189.18 742.457 1186.66 730.071Z"/>
	<path fill="#092042" transform="matrix(0.754883 0 0 0.754883 0 0.00012207)" d="M962.216 491.348C963.794 491.032 965.424 491.116 967.027 491.111C969.613 495.061 967.589 746.819 967.565 765.06L917.034 773.867C902.95 751.942 891.46 727.863 878.965 704.996C872.372 692.931 864.9 681.266 857.698 669.555C855.469 704.049 856.307 739.137 856.248 773.691C836.208 778.78 814.855 781.328 794.336 783.761C791.826 754.088 793.983 719.213 794.068 689.046L794.515 519.494C811.322 515.184 829.548 513.334 846.705 510.452C857.768 524.398 865.309 541.255 873.517 556.986L906.978 621.323C908.351 608.024 907.499 594.084 907.455 580.713C907.369 554.274 907.02 527.896 907.838 501.462C925.545 496.586 944.093 494.138 962.216 491.348Z"/>
	<path fill="#092042" transform="matrix(0.754883 0 0 0.754883 0 0.00012207)" d="M1106.04 466.494C1108.56 466.043 1110.92 465.485 1113.34 466.658C1120.58 470.169 1146.45 489.622 1148.82 496.702C1149.39 498.087 1149.93 499.489 1150.04 500.999C1151.41 520.489 1151.84 721.717 1148.73 730.396C1139.68 735.352 1095.29 741.031 1083.15 742.446C1083.85 741.363 1084.38 740.337 1084.71 739.083C1086.7 731.525 1086.57 687.143 1083.11 681.389C1069.62 684.315 1055.89 686.677 1042.22 688.57C1044.93 691.855 1045.27 696.344 1045.6 700.43C1046.04 705.707 1046.73 715.388 1043.18 719.619C1043.37 720.201 1043.32 719.995 1043.46 720.586C1045.84 730.22 1047.69 742.468 1042.34 751.442C1035.34 754.878 992.77 760.344 981.731 762.58C982.336 733.754 981.538 704.798 981.563 675.957L981.845 524.684C995.34 510.136 1013.38 498.196 1024.32 481.507C1051.55 477.232 1079.14 472.498 1106.04 466.494ZM1080.54 521.495C1068.34 523.696 1056.14 526.029 1043.9 528.014C1047.58 537.024 1045.67 595.919 1045.69 610.46C1045.7 615.827 1044.71 624.08 1046.1 629.138C1056.22 628.385 1074.89 627.906 1083.41 622.62C1088.35 610.46 1084.18 543.097 1084.9 523.79L1083.82 521.775L1080.54 521.495Z"/>
	<path fill="#092042" transform="matrix(0.754883 0 0 0.754883 0 0.00012207)" d="M1453.4 401.499C1455.57 401.183 1457.81 400.828 1459.96 401.355C1467.56 403.208 1497.72 424.93 1502.11 431.729C1502.35 432.277 1502.58 432.846 1502.73 433.424C1505.2 442.893 1505.21 619.342 1502.5 623.767C1499.72 630.219 1472.47 654.31 1466 659.471C1464.1 660.982 1462.06 662.625 1459.77 663.48C1448.99 667.5 1385.33 680.902 1375.24 679.776C1370.48 675.328 1338.01 655.399 1331.63 652.265C1335.64 642.723 1333.27 480.98 1332.1 460.566C1345.57 451.894 1363.31 429.359 1373.8 416.626C1400.22 411.432 1427.29 408.032 1453.4 401.499ZM1428.38 459.499C1417.22 462.787 1405.26 464.263 1393.8 466.159C1401.16 480.56 1392.35 610.774 1397.16 618.396C1398.46 618.432 1399.83 618.603 1401.07 618.183C1410.89 617.469 1426.84 616.653 1435.25 611.48C1436.34 609.734 1436.64 608.283 1436.81 606.256C1439.28 576.719 1437.57 546.089 1437.65 516.443C1437.68 502.216 1439.72 472.724 1436.85 460.061C1436.81 459.888 1436.77 459.716 1436.73 459.544C1434.03 458.391 1431.17 459.09 1428.38 459.499Z"/>
	<path fill="#092042" transform="matrix(0.754883 0 0 0.754883 0 0.00012207)" d="M552.437 564.301C561.095 563.098 585.441 585.234 593.598 590.82L593.692 786.32C581.924 800.346 568.251 812.838 556.858 827.174C526.601 832.135 496.457 838.019 466.325 843.688C466.153 843.723 465.984 843.777 465.809 843.791C456.921 844.51 430.015 820.992 423.64 814.769C422.236 784.974 423 754.86 422.997 725.029C422.994 690.983 422.396 656.826 423.582 622.802C436.7 607.78 451.426 593.612 465.325 579.303C494.454 575.523 523.516 569.481 552.437 564.301ZM526.404 624.356L487.339 630.146C487.38 645.045 486.18 778.864 488.609 782.591L489.522 782.596C503.135 780.457 516.826 778.436 530.34 775.732C530.1 757.218 531.218 628.925 529.473 624.6C528.295 624.327 527.623 624.105 526.404 624.356Z"/>
	<path fill="#092042" transform="matrix(0.754883 0 0 0.754883 0 0.00012207)" d="M735.682 530.304C736.147 530.213 736.613 530.12 737.081 530.05C749.81 528.134 772.928 550.47 783.438 557.92L784.205 682.501C784.299 704.915 783.346 727.908 785.062 750.228C774.44 765.73 756.182 781.245 742.876 795.065C715.599 799.496 688.465 804.842 661.241 809.592L652.083 811.078C637.897 803.887 624.874 794.468 612.704 784.271C613.564 718.726 612.713 653.199 612.898 587.653C626.875 573.949 639.757 558.535 653.446 544.439C680.916 540.175 708.294 535.082 735.682 530.304ZM710.75 589.319L677.224 595.155L677.006 689.958C676.882 700.525 674.792 740.802 676.974 748.814C679.42 749.874 680.658 749.421 683.229 749.024C694.581 747.054 705.945 744.881 717.342 743.207C717.221 692.046 716.172 640.674 717.38 589.537C714.799 588.48 713.375 588.727 710.75 589.319Z"/>
	<path fill="#092042" transform="matrix(0.754883 0 0 0.754883 0 0.00012207)" d="M1649.78 363.499C1649.98 363.482 1650.18 363.468 1650.38 363.447C1653.1 363.156 1655.24 362.864 1657.72 364.337C1663.71 367.893 1692.55 389.903 1694.27 396.198C1694.34 396.359 1694.43 396.516 1694.5 396.679C1697.6 403.827 1696.45 467.628 1695.36 478.331C1694.57 486.088 1693.02 493.597 1690.19 500.876C1684.77 514.764 1674.79 528.985 1660.77 535.084C1661.63 536.118 1662.41 537.179 1663.14 538.303C1670.44 549.437 1728.95 678.004 1727.87 683.36C1720.08 685.929 1711.19 686.995 1703.1 688.678C1687.54 691.915 1671.9 695.668 1656.19 698.006C1656.52 696.655 1656.35 695.299 1656.06 693.954C1654.22 685.472 1624.79 617.914 1621.02 615.493C1621.67 607.759 1607.75 578.852 1603.82 570.607C1601.12 564.928 1596.72 554.919 1590.63 552.751C1585.82 561.353 1594.23 625.484 1587.98 637.849C1587.91 638.005 1587.81 638.155 1587.73 638.309C1573.89 643.549 1539.59 648.68 1523.91 650.609C1523.99 650.483 1524.07 650.36 1524.14 650.23C1524.27 650.015 1524.37 649.792 1524.49 649.576C1525.93 646.988 1525.86 644.953 1525.94 642.057C1527.35 588.209 1526.04 534.065 1526.19 480.175L1526.32 423.326C1526.35 411.781 1527.53 398.481 1525.02 387.226C1532.47 385.249 1540.4 384.566 1547.99 383.05C1581.78 376.293 1616.33 371.772 1649.78 363.499ZM1616.28 424.499C1607.22 426.849 1597.93 428.336 1588.72 429.99C1593.43 438.993 1586.68 492.169 1590.3 496.164C1590.72 496.632 1591.44 496.693 1592.02 496.958C1593.65 496.766 1595.69 496.76 1597.23 496.196C1604.99 495.277 1619.38 494.694 1625.99 490.523C1629.2 485.179 1629.17 431.999 1627.47 424.829C1627.43 424.661 1627.38 424.494 1627.34 424.327C1623.83 423.183 1619.87 424.049 1616.28 424.499Z"/>
	<path fill="#02B5B6" transform="matrix(0.754883 0 0 0.754883 0 0.00012207)" d="M577.38 254.233C655.422 279.877 729.083 298.808 810.991 307.297C813.401 327.084 816.784 346.408 823.335 365.308C841.382 417.379 881.007 462.963 930.723 486.993C919.753 488.899 908.704 491.187 897.612 492.202C895.873 512.634 896.377 533.461 896.839 553.942C897.038 562.758 898.169 572.426 897.311 581.167C881.325 554.661 868.969 526.492 854.038 499.449C831.185 502.146 806.353 505.558 784.077 511.224C784.072 517.376 785.386 539.093 783.23 543.672L782.552 543.884L773.605 538.112C767.534 534.237 761.857 530.351 756.788 525.198C760.167 518.053 763.643 511.051 767.532 504.167C727.657 503.109 702.75 489.484 675.085 461.523C681.544 456.657 687.586 451.218 694.041 446.318C669.614 435.059 649.286 416.825 633.592 395.161C627.269 386.433 621.737 377.147 614.813 368.866L630.995 365.458C626.427 362.492 621.831 359.535 617.676 356.001C588.991 331.599 580.337 290.055 577.38 254.233Z"/>
	<path fill="#092042" transform="matrix(0.754883 0 0 0.754883 0 0.00012207)" d="M577.38 254.233C655.422 279.877 729.083 298.808 810.991 307.297C813.401 327.084 816.784 346.408 823.335 365.308C841.382 417.379 881.007 462.963 930.723 486.993C919.753 488.899 908.704 491.187 897.612 492.202L897.021 491.632C887.401 482.459 875.588 475.646 865.946 466.449C824.452 426.87 805.259 380.123 792.852 325.39C727.051 315.039 661.784 303.819 598.657 281.913C607.261 306.686 619.967 326.752 644.248 338.491C654.048 343.229 675.057 346.921 680.199 350.058L679.236 349.421L678.918 350.495L677.948 350.555L678.022 350.539C669.393 350.376 661.245 349.071 652.777 347.538C686.595 365.463 717.744 374.943 755.869 379.243C720.03 383.977 683.063 381.631 646.975 382.856C665.888 408.546 694.226 426.124 725.932 430.922C750.041 434.571 772.206 429.969 795.174 422.787C766.192 439.954 735.181 448.31 704.994 462.236C723.231 475.024 743.806 486.755 767.008 482.876C785.991 479.703 799.602 466.269 812.002 452.627C806.144 464.336 800.229 476.033 794.741 487.921C791.228 495.531 788.166 503.942 784.077 511.224C784.072 517.376 785.386 539.093 783.23 543.672L782.552 543.884L773.605 538.112C767.534 534.237 761.857 530.351 756.788 525.198C760.167 518.053 763.643 511.051 767.532 504.167C727.657 503.109 702.75 489.484 675.085 461.523C681.544 456.657 687.586 451.218 694.041 446.318C669.614 435.059 649.286 416.825 633.592 395.161C627.269 386.433 621.737 377.147 614.813 368.866L630.995 365.458C626.427 362.492 621.831 359.535 617.676 356.001C588.991 331.599 580.337 290.055 577.38 254.233Z"/>
	<path fill="#02B5B6" transform="matrix(0.754883 0 0 0.754883 0 0.00012207)" d="M773.605 538.112L783.262 514.92C783.315 524.17 784.418 534.835 782.552 543.884L773.605 538.112Z"/>
	<path fill="#092042" transform="matrix(0.754883 0 0 0.754883 0 0.00012207)" d="M345.981 527.311L350.924 526.798C362.725 530.298 396.066 565.069 407.561 574.473C407.352 610.668 406.429 646.822 406.486 683.027C406.544 719.846 407.591 756.649 406.999 793.467C398.496 802.353 390.952 812.77 383.103 822.277C371.71 836.077 359.912 849.53 348.498 863.308C303.899 871.413 259.227 879.42 214.781 888.328C215.282 875.786 214.843 863.061 214.826 850.5C214.411 774.878 214.356 699.082 215.443 623.47C186.352 629.515 156.996 634.459 127.845 640.259C140.191 614.124 151.623 587.564 164.05 561.437C188.327 557.907 212.386 552.485 236.472 547.858L345.981 527.311ZM313.106 591.245C301.586 593.451 290.071 595.826 278.47 597.565C280.002 667.948 279.176 738.338 278.482 808.724C286.59 807.415 294.781 806.291 302.836 804.7C318.575 801.356 329.55 794.601 339.124 781.439L338.974 678.583C339.072 655.434 342.2 625.335 336.979 603.24C331.888 597.223 326.509 591.555 318.124 590.95C316.443 590.829 314.769 591.016 313.106 591.245Z"/>
	<path fill="#092042" transform="matrix(0.754883 0 0 0.754883 0 0.00012207)" d="M1021.2 48.62C1021.41 48.6346 1021.62 48.6257 1021.82 48.6639C1027.71 49.7668 1043.99 76.3589 1047.47 82.2516C1050.46 87.308 1057.39 97.7617 1055.87 103.687C1062.71 103.179 1069.61 101.782 1076.38 100.687C1077.29 101.734 1077.62 102.532 1077.95 103.896C1080.04 112.565 1081.51 133.333 1076.86 140.851C1093.19 144.077 1110.92 155.921 1123.99 165.789C1161.69 194.248 1186.6 235.585 1192.99 282.425C1198.93 325.963 1185.61 371.15 1159.16 405.955C1151.06 416.606 1141.65 426.246 1131.57 435.019C1123.51 442.03 1114.81 449.138 1105.22 453.966C1084.91 464.19 1049.87 467.855 1027.09 470.909C1003.4 471.599 980.667 468.292 958.715 459.081C917.188 441.655 883.156 407.56 866.199 365.803C849.607 324.944 848.871 278.005 866.197 237.299C885.564 191.802 922.572 158.566 968.045 140.206L968.146 99.3492C975.146 100.91 982.185 102.326 989.203 103.81C997.456 83.3872 1009.07 66.7608 1021.2 48.62Z"/>
	<path fill="#EF5817" transform="matrix(0.754883 0 0 0.754883 0 0.00012207)" d="M1023.4 81.5773C1029.29 88.4349 1035.87 96.4815 1038.02 105.419C1040.31 114.933 1036.83 122.99 1031.81 130.948C1029.94 134.802 1023.92 136.074 1021.07 139.872C1013.79 131.135 1010.47 118.148 1007.78 107.355C1011.75 97.7874 1017.31 89.9079 1023.4 81.5773Z"/>
	<path fill="#EF5817" transform="matrix(0.754883 0 0 0.754883 0 0.00012207)" d="M989.392 123.457C1002.16 129.131 1011.52 135.779 1021.48 145.566C1022.44 143.594 1021.58 141.943 1021.07 139.872C1023.92 136.074 1029.94 134.802 1031.81 130.948C1039.24 129.14 1048.98 125.302 1056.48 125.093C1059.78 134.635 1060.46 208.622 1056.51 216.941L1058.91 218.096C1065.31 213.121 1085.73 176.756 1088.51 168.247C1118.14 177.683 1144.69 211.391 1158.39 237.908C1169.09 258.619 1181.13 300.883 1173.37 323.751C1172.84 325.307 1172.08 326.375 1170.88 327.505C1170.77 327.615 1170.65 327.728 1170.54 327.839C1171.04 328.847 1171.49 329.888 1171.73 330.994C1174.41 343.608 1156.51 375.691 1149.5 386.461C1128.62 418.523 1094.62 441.728 1057.2 449.564C1017.77 457.821 975.789 449.615 942.124 427.607C903.795 402.552 883.715 365.308 874.512 321.356C872.257 299.235 873.981 276.904 880.938 255.737C894.269 215.178 923.848 184.337 961.594 165.323C970.549 180.91 979.33 196.639 988.922 211.845C989.735 182.444 989.244 152.878 989.392 123.457Z"/>
	<path fill="#F5923A" transform="matrix(0.754883 0 0 0.754883 0 0.00012207)" d="M989.392 123.457C1002.16 129.131 1011.52 135.779 1021.48 145.566C1022.44 143.594 1021.58 141.943 1021.07 139.872C1023.92 136.074 1029.94 134.802 1031.81 130.948C1039.24 129.14 1048.98 125.302 1056.48 125.093C1059.78 134.635 1060.46 208.622 1056.51 216.941C1058.2 226.167 1061.33 255.028 1056.22 262.904C1075.7 262.059 1108.71 257.832 1124.35 272.074C1130.18 277.388 1133 284.942 1133.27 292.726C1133.59 302.119 1130.2 311.459 1123.77 318.346C1120.3 322.067 1115.63 325.344 1110.69 326.731C1094.53 332.151 1072.71 329.172 1055.98 328.587C1060.12 335.827 1057.95 366.562 1058.11 376.889C1058.3 390.349 1058.04 406.407 1047.9 416.588C1041.34 423.171 1032.01 426.36 1022.81 426.249C1013.83 426.141 1004.65 422.981 998.342 416.43C983.375 400.89 988.825 349.276 989.194 328.109C977.3 328.109 946.127 330.421 936.409 326.961C930.966 324.518 925.923 321.946 921.599 317.709C915.502 311.733 912.894 304.61 912.875 296.143C912.856 287.551 914.95 279.295 921.278 273.147C936.647 258.217 969.749 262.4 989.274 262.957L988.922 211.845C989.735 182.444 989.244 152.878 989.392 123.457Z"/>
</svg>
