<svg xmlns="http://www.w3.org/2000/svg" fill="none" viewBox="40.30359419263456 122.0608 341.68980169971667 72.712" style="max-height: 500px" width="341.68980169971667" height="72.712">
<g clip-path="url(#clip0_301_2)">
<rect fill="white" transform="matrix(0 -1 1 0 0.5 297.5)" height="420" width="297"/>
<path fill="black" d="M59.597 124.838C64.657 124.838 69.096 125.827 72.914 127.805C76.778 129.783 79.745 132.612 81.815 136.292C83.931 139.926 84.989 144.158 84.989 148.988C84.989 153.818 83.931 158.05 81.815 161.684C79.745 165.272 76.778 168.055 72.914 170.033C69.096 172.011 64.657 173 59.597 173H42.761V124.838H59.597ZM59.252 164.789C64.312 164.789 68.222 163.409 70.982 160.649C73.742 157.889 75.122 154.002 75.122 148.988C75.122 143.974 73.742 140.064 70.982 137.258C68.222 134.406 64.312 132.98 59.252 132.98H52.421V164.789H59.252ZM109.194 173.621C105.514 173.621 102.202 172.816 99.258 171.206C96.314 169.55 93.991 167.227 92.289 164.237C90.633 161.247 89.805 157.797 89.805 153.887C89.805 149.977 90.656 146.527 92.358 143.537C94.106 140.547 96.475 138.247 99.465 136.637C102.455 134.981 105.79 134.153 109.47 134.153C113.15 134.153 116.485 134.981 119.475 136.637C122.465 138.247 124.811 140.547 126.513 143.537C128.261 146.527 129.135 149.977 129.135 153.887C129.135 157.797 128.238 161.247 126.444 164.237C124.696 167.227 122.304 169.55 119.268 171.206C116.278 172.816 112.92 173.621 109.194 173.621ZM109.194 165.203C110.942 165.203 112.575 164.789 114.093 163.961C115.657 163.087 116.899 161.799 117.819 160.097C118.739 158.395 119.199 156.325 119.199 153.887C119.199 150.253 118.233 147.47 116.301 145.538C114.415 143.56 112.092 142.571 109.332 142.571C106.572 142.571 104.249 143.56 102.363 145.538C100.523 147.47 99.603 150.253 99.603 153.887C99.603 157.521 100.5 160.327 102.294 162.305C104.134 164.237 106.434 165.203 109.194 165.203ZM157.404 134.222C161.958 134.222 165.638 135.671 168.444 138.569C171.25 141.421 172.653 145.423 172.653 150.575V173H162.993V151.886C162.993 148.85 162.234 146.527 160.716 144.917C159.198 143.261 157.128 142.433 154.506 142.433C151.838 142.433 149.722 143.261 148.158 144.917C146.64 146.527 145.881 148.85 145.881 151.886V173H136.221V134.774H145.881V139.535C147.169 137.879 148.802 136.591 150.78 135.671C152.804 134.705 155.012 134.222 157.404 134.222ZM179.355 153.749C179.355 149.885 180.114 146.458 181.632 143.468C183.196 140.478 185.289 138.178 187.911 136.568C190.579 134.958 193.546 134.153 196.812 134.153C199.664 134.153 202.148 134.728 204.264 135.878C206.426 137.028 208.151 138.477 209.439 140.225V134.774H219.168V173H209.439V167.411C208.197 169.205 206.472 170.7 204.264 171.896C202.102 173.046 199.595 173.621 196.743 173.621C193.523 173.621 190.579 172.793 187.911 171.137C185.289 169.481 183.196 167.158 181.632 164.168C180.114 161.132 179.355 157.659 179.355 153.749ZM209.439 153.887C209.439 151.541 208.979 149.54 208.059 147.884C207.139 146.182 205.897 144.894 204.333 144.02C202.769 143.1 201.09 142.64 199.296 142.64C197.502 142.64 195.846 143.077 194.328 143.951C192.81 144.825 191.568 146.113 190.602 147.815C189.682 149.471 189.222 151.449 189.222 153.749C189.222 156.049 189.682 158.073 190.602 159.821C191.568 161.523 192.81 162.834 194.328 163.754C195.892 164.674 197.548 165.134 199.296 165.134C201.09 165.134 202.769 164.697 204.333 163.823C205.897 162.903 207.139 161.615 208.059 159.959C208.979 158.257 209.439 156.233 209.439 153.887Z"/>
<path fill="#90D26D" d="M239.85 142.709V161.201C239.85 162.489 240.149 163.432 240.747 164.03C241.391 164.582 242.449 164.858 243.921 164.858H248.406V173H242.334C234.192 173 230.121 169.044 230.121 161.132V142.709H225.567V134.774H230.121V125.321H239.85V134.774H248.406V142.709H239.85ZM272.328 173.621C268.648 173.621 265.336 172.816 262.392 171.206C259.448 169.55 257.125 167.227 255.423 164.237C253.767 161.247 252.939 157.797 252.939 153.887C252.939 149.977 253.79 146.527 255.492 143.537C257.24 140.547 259.609 138.247 262.599 136.637C265.589 134.981 268.924 134.153 272.604 134.153C276.284 134.153 279.619 134.981 282.609 136.637C285.599 138.247 287.945 140.547 289.647 143.537C291.395 146.527 292.269 149.977 292.269 153.887C292.269 157.797 291.372 161.247 289.578 164.237C287.83 167.227 285.438 169.55 282.402 171.206C279.412 172.816 276.054 173.621 272.328 173.621ZM272.328 165.203C274.076 165.203 275.709 164.789 277.227 163.961C278.791 163.087 280.033 161.799 280.953 160.097C281.873 158.395 282.333 156.325 282.333 153.887C282.333 150.253 281.367 147.47 279.435 145.538C277.549 143.56 275.226 142.571 272.466 142.571C269.706 142.571 267.383 143.56 265.497 145.538C263.657 147.47 262.737 150.253 262.737 153.887C262.737 157.521 263.634 160.327 265.428 162.305C267.268 164.237 269.568 165.203 272.328 165.203ZM309.015 140.708C310.257 138.684 311.867 137.097 313.845 135.947C315.869 134.797 318.169 134.222 320.745 134.222V144.365H318.192C315.156 144.365 312.856 145.078 311.292 146.504C309.774 147.93 309.015 150.414 309.015 153.956V173H299.355V134.774H309.015V140.708ZM363.821 134.774L340.154 191.078H329.873L338.153 172.034L322.835 134.774H333.668L343.535 161.477L353.54 134.774H363.821ZM373.307 173.483C371.559 173.483 370.11 172.954 368.96 171.896C367.856 170.792 367.304 169.435 367.304 167.825C367.304 166.215 367.856 164.881 368.96 163.823C370.11 162.719 371.559 162.167 373.307 162.167C375.009 162.167 376.412 162.719 377.516 163.823C378.62 164.881 379.172 166.215 379.172 167.825C379.172 169.435 378.62 170.792 377.516 171.896C376.412 172.954 375.009 173.483 373.307 173.483Z"/>
</g>
<defs>
<clipPath id="clip0_301_2">
<rect transform="matrix(0 -1 1 0 0.5 297.5)" fill="white" height="420" width="297"/>
</clipPath>
</defs>
</svg>